<?xml version="1.0" encoding="UTF-8" standalone="no"?>
<!-- Created with Inkscape (http://www.inkscape.org/) -->

<svg
   width="210mm"
   height="297mm"
   viewBox="0 0 210 297"
   version="1.1"
   id="svg10170"
   inkscape:version="1.2.2 (b0a8486541, 2022-12-01)"
   sodipodi:docname="cbrf.svg"
   xmlns:inkscape="http://www.inkscape.org/namespaces/inkscape"
   xmlns:sodipodi="http://sodipodi.sourceforge.net/DTD/sodipodi-0.dtd"
   xmlns="http://www.w3.org/2000/svg"
   xmlns:svg="http://www.w3.org/2000/svg">
  <sodipodi:namedview
     id="namedview10172"
     pagecolor="#505050"
     bordercolor="#ffffff"
     borderopacity="1"
     inkscape:showpageshadow="0"
     inkscape:pageopacity="0"
     inkscape:pagecheckerboard="1"
     inkscape:deskcolor="#505050"
     inkscape:document-units="mm"
     showgrid="false"
     inkscape:zoom="0.84274691"
     inkscape:cx="554.73357"
     inkscape:cy="489.47079"
     inkscape:window-width="1300"
     inkscape:window-height="699"
     inkscape:window-x="0"
     inkscape:window-y="0"
     inkscape:window-maximized="1"
     inkscape:current-layer="layer1" />
  <defs
     id="defs10167" />
  <g
     inkscape:label="Layer 1"
     inkscape:groupmode="layer"
     id="layer1">
    <path
       d="m 106.82751,91.988119 c -47.489959,0 -86.391352,38.396141 -86.391352,86.391351 0,47.48998 38.396138,86.39137 86.391352,86.39137 47.49016,0 86.39156,-38.39614 86.39156,-86.39137 0,-47.99521 -38.9014,-86.391351 -86.39156,-86.391351 z m 0,165.709661 c -43.953455,0 -79.318295,-35.36486 -79.318295,-79.31831 0,-43.95345 35.36484,-79.318497 79.318295,-79.318497 43.95367,0 79.31849,35.365047 79.31849,79.318497 0.50602,43.44822 -35.36482,79.31831 -79.31849,79.31831 z"
       id="path6767"
       style="clip-rule:evenodd;fill-rule:nonzero;stroke-width:5.05212;stroke-linecap:round;stroke-linejoin:round" />
    <path
       d="m 106.82751,242.54139 c 3.0313,0 4.54701,-2.02079 5.05226,-4.54683 0.50602,1.01012 1.51611,2.02079 2.52606,2.52604 1.01008,0 2.52601,0 3.53649,-0.506 1.01012,-0.50602 2.02082,-1.51614 2.52604,-2.52605 0.50602,-1.01009 0.50602,-2.52601 0,-3.53653 1.51614,2.021 3.53653,2.52605 6.06258,1.51613 3.03128,-1.51613 4.04158,-3.53652 2.52601,-6.5678 -3.53653,-8.58858 -7.07302,-16.67212 -10.60955,-25.26071 -0.50411,-1.01012 -0.50411,-1.51613 -1.01013,-2.52605 -0.50601,-0.50601 -0.50601,-1.01012 -1.01008,-1.51613 0,-0.50599 -0.50602,-0.50599 -1.01012,-1.01009 5.55749,0.50601 8.08354,2.52604 9.59907,3.53653 0.50601,0.506 0.50601,0.506 2.02099,0 h 2.02079 c 0.50601,0.506 1.51611,1.01008 2.02079,1.01008 l 6.06255,4.54702 c 1.01012,1.01013 2.02099,2.02078 2.02099,3.53653 0,1.01012 -3.03127,3.53653 -3.53653,4.54683 -2.02097,2.02098 1.01009,5.05227 5.05206,5.05227 -1.01009,-1.01012 -1.5161,-2.02099 -1.01009,-3.03129 0.50602,0 1.01009,0 2.02097,-0.50602 1.01012,-0.50599 0.50602,-3.03128 1.01012,-3.5365 1.5161,-1.51614 5.55749,-1.51614 8.58877,-1.51614 1.01012,0 2.52604,-0.50411 2.02079,-2.02078 1.51614,0 2.02078,1.5161 2.02078,2.52604 1.51613,-1.01012 2.52605,-4.54683 -2.52601,-5.55732 1.01009,-1.01012 2.52601,-1.01012 3.5365,0 1.01012,-1.51612 -1.5161,-4.04178 -5.55732,-2.52604 0,0 -2.02097,-2.52602 -7.07303,3.53653 -0.50601,-0.50601 -1.51614,-1.01012 -2.02079,-1.51611 l -7.07305,-7.07287 c 0,-3.03127 -0.50602,-8.58877 -4.04176,-11.62004 -1.51613,-1.51613 -3.0313,-2.02081 -6.56762,-3.0313 0,0 1.51611,-2.52602 2.02079,-3.53632 3.03127,3.03127 9.09384,4.04158 9.09384,-1.01012 5.05206,5.05208 9.59908,2.02079 9.59908,-1.0101 0,1.51611 0.506,3.03127 1.01012,4.54703 0.50598,1.51609 3.03127,8.08332 8.58877,8.08332 0,2.02079 0,9.59911 7.07285,11.11463 0.50601,0 0.50601,0 1.01012,0.50602 3.03127,3.53653 14.65116,7.07305 15.66164,6.06253 -1.01012,-0.50597 -2.52604,-1.5161 -2.52604,-5.55728 0,-2.52604 -0.50602,-16.67194 -0.50602,-36.37535 0,-7.07305 -0.50601,-29.80754 -23.23993,-32.83885 -3.53631,-0.50597 -6.56762,0 -9.59889,2.021 -4.04175,3.03128 -6.06253,8.08333 -3.53653,13.64064 v 0.50602 c 1.01012,1.51614 0.50602,2.52604 -0.506,3.53635 -2.02079,2.02097 -4.04176,3.03127 -6.56781,3.5365 -1.5161,0 -3.03127,-0.50598 -4.04175,-1.5161 -2.52605,-2.52606 -4.04158,-5.55732 -5.05207,-9.09385 -1.01012,-6.5678 0.50599,-10.10412 0.50599,-10.60937 2.02082,-3.53653 5.55731,-6.5678 10.10433,-6.5678 2.02079,-4.04176 8.08335,-2.52606 8.08335,-2.52606 1.51611,0.50602 2.02079,0.50602 2.52606,1.51614 0,0 2.52601,-4.04157 0,-5.55731 -2.52606,-1.51611 -8.08337,-2.02079 -8.08337,-2.02079 0,-2.52604 -4.04175,-4.54701 -12.12512,-3.03128 -9.09384,1.51611 -11.11481,-2.02099 -11.11481,-2.02099 -0.50601,4.54701 3.03127,6.5678 4.04176,7.57831 -3.53649,4.04176 -8.58859,11.61986 -9.59908,22.22924 -1.01012,-10.60938 -6.06253,-18.18748 -9.599065,-22.22924 1.0101,-0.50601 4.547005,-3.0313 4.041755,-7.57831 0,0 -2.020785,3.53653 -11.114635,2.02099 -7.578283,-1.51612 -12.125113,0.50599 -12.125113,3.03128 0,0 -5.557327,0.50602 -8.083335,2.02079 -2.526224,1.5161 0,5.55731 0,5.55731 0.504079,-0.50601 1.010086,-1.01012 2.526008,-1.51614 0,0 6.062581,-1.51609 8.083369,2.52606 4.54683,0.506 8.083361,3.03127 10.104331,6.5678 0,0 2.02078,3.53652 0.50411,10.60937 -0.50411,3.53653 -2.52605,6.56779 -5.052096,9.09385 -1.010086,1.01012 -2.526008,2.02078 -4.041758,1.5161 -2.526043,-0.50598 -4.546831,-1.5161 -6.567619,-3.5365 -1.010085,-1.01012 -1.516104,-2.02079 -0.506007,-3.53635 v -0.50602 c 2.526042,-5.55731 0.506007,-10.60936 -3.536527,-13.64064 -3.031274,-2.021 -6.062547,-2.52604 -9.599074,-2.021 -22.229266,3.03131 -23.23975,25.7658 -23.23975,32.83885 0,19.70341 -0.506012,33.84931 -0.506012,36.37535 0,4.04176 -1.516105,5.05206 -2.526015,5.55728 1.516105,1.01014 13.135605,-2.526 15.661647,-6.06253 0,0 0.505984,-0.50602 1.010086,-0.50602 7.073066,-1.5161 7.073066,-9.09384 7.073066,-11.11463 5.557315,0 8.083323,-6.5678 8.588577,-8.08332 0.506019,-1.51614 1.010132,-3.03131 1.010132,-4.54703 0,3.03127 4.546795,5.55733 9.599062,1.0101 0,5.05208 6.062547,4.04178 9.093858,1.01012 0.50407,1.0101 2.02078,3.53632 2.02078,3.53632 -3.536534,0.50601 -5.052091,1.51613 -6.567796,3.0313 -4.041793,3.5365 -4.041793,9.09382 -4.041793,11.62004 l -7.072849,7.07287 c -0.506008,0.50599 -1.516128,1.0101 -2.020777,1.51611 -5.557532,-6.06255 -7.073066,-3.53653 -7.073066,-3.53653 -4.041747,-1.5161 -6.062535,1.01012 -5.557316,2.52604 1.01012,-1.01012 2.526042,-0.506 3.536528,0 -5.557498,1.0101 -4.041747,5.05206 -2.526225,5.55732 0,-1.01012 0.506019,-2.52604 2.020971,-2.52604 0,1.5161 1.01012,2.02078 2.020788,2.02078 2.526042,0 7.073054,0 8.588623,1.51614 1.010085,0.50598 0.505973,3.03127 1.010085,3.5365 0.506019,0.50602 1.516139,0.50602 2.020788,0.50602 0,1.01012 0,1.51612 -1.010097,3.03129 4.041759,0.50408 6.567801,-3.03129 5.052244,-5.05227 -1.010086,-1.01012 -3.536527,-3.53652 -3.536527,-4.54683 0,-1.01009 1.01012,-2.52601 2.020788,-3.53653 l 6.062569,-4.54702 c 0.506019,-0.506 1.010097,-1.01008 2.020971,-1.01008 0.504113,-0.50602 1.516139,-0.50602 2.020788,0 1.516143,0.506 1.516143,0.506 2.020783,0 1.51614,-1.01012 4.04179,-3.03128 9.59912,-3.53653 -0.50601,0 -0.50601,0.50601 -1.01012,1.01009 -0.50603,0.50601 -0.50603,1.01012 -1.0101,1.51613 -0.50601,0.50601 -0.50601,1.51611 -1.01012,2.52605 -3.53653,8.58859 -7.07307,16.67213 -10.609381,25.26071 -1.01012,3.03128 0,5.05207 2.526042,6.5678 2.020789,1.0101 4.546809,0.50602 6.062549,-1.51613 -0.50602,1.51613 -0.50602,2.52605 0,3.53653 0.506,1.01012 1.5161,2.02078 2.52604,2.52605 1.0101,0.506 2.52602,0.506 3.53654,0.506 1.516105,-0.506 2.020785,-1.01012 2.526005,-2.52604 0.50602,2.52604 2.02079,4.54683 5.0521,4.54683 z"
       id="path6769"
       style="clip-rule:evenodd;fill-rule:nonzero;stroke-width:5.05212;stroke-linecap:round;stroke-linejoin:round" />
  </g>
</svg>
