<?xml version="1.0" encoding="utf-8"?>
<!-- Generator: Adobe Illustrator 26.0.1, SVG Export Plug-In . SVG Version: 6.00 Build 0)  -->
<svg version="1.1" id="Слой_1" xmlns="http://www.w3.org/2000/svg" xmlns:xlink="http://www.w3.org/1999/xlink" x="0px" y="0px"
	 viewBox="0 0 500 334.23" style="enable-background:new 0 0 500 334.23;" xml:space="preserve">
<style type="text/css">
	.st0{fill:#DB0124;}
</style>
<path class="st0" d="M320.19,306.7v17.92h-21.95v-88.31h21.95v40.12l35.2-40.12h25.97l-33.64,38.7l36.5,49.61h-26.76l-24.67-32.47
	L320.19,306.7z M282.74,324.62h-17.02l-42.34-48.44v48.44h-21.95v-88.31h16.76l42.59,49.74v-49.74h21.95V324.62z M125.27,309.43
	l-5.85,15.19H96.05l37.54-88.83h20.91l37.4,88.83h-23.24l-5.98-15.19H125.27z M143.97,261.38l-11.43,29.35h22.86L143.97,261.38z
	 M93.93,300.07c0,14.68-11.82,24.54-31.69,24.54H15.99v-88.31h43.64c19.09,0,30.39,9.09,30.39,23.51c0,8.18-4.55,16.62-12.34,19.35
	C88.48,281.5,93.93,290.59,93.93,300.07z M37.94,272.28h18.31c8.19,0,12.74-3.76,12.74-9.48c0-5.59-4.3-8.57-12.74-8.57H37.94
	V272.28z M59.38,306.44c8.96,0,12.99-4.02,12.99-9.22c0-5.45-4.55-8.18-12.6-8.18H37.94v17.4H59.38z M153.28,81.62
	c2.97,8.82,11.11,15.14,20.71,15.14c9.6,0,17.74-6.32,20.7-15.14H153.28z M174,11.61c-34.87,0-63.14,26.93-63.14,60.16
	c0,11.71,3.52,22.65,9.6,31.89h30.45c-9.24-6.99-15.24-18.06-15.24-30.55c0-21.17,17.16-38.33,38.33-38.33
	c21.17,0,38.33,17.16,38.33,38.33c0,12.49-6,23.56-15.25,30.55h30.45c6.09-9.24,9.6-20.18,9.6-31.89
	C237.12,38.54,208.87,11.61,174,11.61z M387.64,34.56v16.08h39.16v18.67h-39.16v15.3h44.73v19.06h-66.64V15.5h66.64v19.06H387.64z
	 M347.55,103.66h-21.92v-44.2l-19.58,30.2v0.13h-12.18v-0.13l-19.71-30.47l0.13,44.47h-21.92V15.49h16.34l31.25,47.07l31.25-47.07
	h16.34V103.66z M95.61,15.49v88.17H73.83V70.6H37.91v33.07H16V15.49h21.91v35.4h35.92v-35.4H95.61z M77.61,180.68
	c-3.38,8.13-10.44,12.94-20.29,12.94c-14.39,0-24.38-10.63-24.38-25.29c0-14.66,9.99-25.29,24.38-25.29
	c9.85,0,16.9,4.82,20.29,12.94h23.21c-4.55-20.13-21.12-33.42-43.36-33.42c-26.59,0-46.67,19.2-46.67,45.77
	c0,26.59,20.09,45.77,46.67,45.77c22.25,0,38.81-13.28,43.36-33.42H77.61z M487.21,143.82h-25.3v68.6h-21.79v-68.6h-25.28v-19.57
	h72.36V143.82z M381.37,212.42h21.92v-88.18h-21.92V212.42z M369.31,168.08c0,26.18-19.83,44.34-47.57,44.34h-35.41v-88.17h35.41
	C349.48,124.25,369.31,142.27,369.31,168.08z M347.14,168.08c0-13.62-11.01-24.12-25.4-24.12h-13.49v48.74h13.49
	C336.12,192.7,347.14,182.08,347.14,168.08z M226.87,143.31v16.07h39.16v18.68h-39.16v15.29h44.73v19.07h-66.64v-88.17h66.64v19.06
	H226.87z M168.69,212.42l-16.72-25.55h-16.73v25.55h-21.92v-88.17h38.51c21.92,0,36.57,11.93,36.57,30.99
	c0,11.55-5.58,20.87-14.91,26.32l20.74,30.86H168.69z M135.24,167.16h16.21c8.43,0,15.04-4.66,15.04-11.93
	c0-7.13-6.61-11.67-15.04-11.67h-16.21V167.16z"/>
</svg>
